<?xml version="1.0" encoding="UTF-8"?>
<svg version="1.1" xmlns="http://www.w3.org/2000/svg" width="1024" height="1024">
<path d="M0 0 C5.91041882 0.01997523 11.82083992 0.03912434 17.73126285 0.0578429 C37.74425231 0.1213512 57.75719732 0.19179085 77.77012394 0.27277739 C82.89572471 0.29333385 88.02133046 0.31164883 93.14694278 0.32906025 C99.89312763 0.35207509 106.63926895 0.38041086 113.38541715 0.41261666 C115.83962323 0.42357187 118.29383748 0.43283893 120.74805658 0.44032996 C124.06206425 0.45075451 127.37598455 0.4672435 130.68995731 0.48543232 C131.66377683 0.48709274 132.63759636 0.48875317 133.64092557 0.49046391 C134.51569846 0.49655485 135.39047135 0.5026458 136.2917525 0.50892132 C137.4309967 0.51372149 137.4309967 0.51372149 138.59325592 0.51861864 C140.31953494 0.65037983 140.31953494 0.65037983 141.31953494 1.65037983 C141.47955595 4.31441564 141.57903999 6.9561924 141.63594119 9.62303608 C141.65459232 10.32972431 141.67324344 11.03641254 141.69245975 11.76451557 C141.76095105 14.41383862 141.82097593 17.06337507 141.88203494 19.71287983 C142.02640994 25.63225483 142.17078494 31.55162983 142.31953494 37.65037983 C161.62453494 38.14537983 161.62453494 38.14537983 181.31953494 38.65037983 C181.64953494 51.19037983 181.97953494 63.73037983 182.31953494 76.65037983 C193.53953494 76.98037983 204.75953494 77.31037983 216.31953494 77.65037983 C216.31953494 76.99037983 216.31953494 76.33037983 216.31953494 75.65037983 C216.97953494 75.65037983 217.63953494 75.65037983 218.31953494 75.65037983 C218.31953494 76.31037983 218.31953494 76.97037983 218.31953494 77.65037983 C218.97953494 77.65037983 219.63953494 77.65037983 220.31953494 77.65037983 C221.54728608 83.3851838 221.45643312 89.01649271 221.4409949 94.84985798 C221.44193133 95.99487815 221.44286776 97.13989832 221.44383256 98.31961607 C221.4453546 101.52345097 221.44231388 104.7272447 221.4373378 107.93107494 C221.43292566 111.45863567 221.43423642 114.98619551 221.43469302 118.51375835 C221.43460388 125.62121409 221.42869336 132.72865493 221.42095225 139.83610601 C221.41454706 145.82849859 221.41042232 151.82088925 221.40765445 157.81328457 C221.36506993 247.8958208 221.16399073 337.97829806 220.87869243 472.01499358 C220.83393918 492.78497424 220.79004357 513.55495657 220.74678104 534.32494038 C220.74528698 535.04209134 220.74379292 535.75924229 220.74225359 536.4981251 C220.72723732 543.7063451 220.7122352 550.91456512 220.69724339 558.12278516 C220.66675924 572.77973441 220.63618126 587.43668346 220.60554568 602.09363239 C220.60343745 603.10235603 220.60343745 603.10235603 220.60128663 604.13145792 C220.50895439 648.30443525 220.41443533 692.47740795 220.31953494 736.65037983 C216.44326558 737.72335336 212.77712335 737.76060588 208.78047244 737.71287983 C208.0584061 737.70909321 207.33633975 737.70530659 206.59239261 737.70140522 C204.29304522 737.68921913 201.99382502 737.6705828 199.69453494 737.65037983 C196.66068428 737.62384469 193.62689509 737.60383244 190.59297244 737.58787983 C189.89400851 737.57958149 189.19504459 737.57128315 188.47489993 737.56273334 C184.77360615 737.48898627 184.77360615 737.48898627 181.31953494 738.65037983 C181.34571902 739.78580219 181.37190311 740.92122456 181.39888065 742.09105366 C181.48933272 746.30081439 181.54676538 750.5104892 181.59419315 754.72093647 C181.61934891 756.5436745 181.65347779 758.36631154 181.69673221 760.18870991 C181.7573404 762.80769676 181.78573255 765.42535136 181.80781619 768.04491108 C181.83362262 768.86063084 181.85942905 769.67635059 181.88601749 770.51678913 C181.8871619 772.82152241 181.8871619 772.82152241 181.31953494 776.65037983 C178.78901736 778.68822163 178.78901736 778.68822163 176.31953494 779.65037983 C176.31953494 778.99037983 176.31953494 778.33037983 176.31953494 777.65037983 C167.40953494 777.65037983 158.49953494 777.65037983 149.31953494 777.65037983 C149.31953494 777.98037983 149.31953494 778.31037983 149.31953494 778.65037983 C145.60354303 778.85124426 144.54745049 778.80232353 141.31953494 776.65037983 C141.3250657 777.5029455 141.3250657 777.5029455 141.33070819 778.37273472 C141.4190424 792.20207896 141.48498091 806.03137378 141.52678363 819.86093967 C141.54767751 826.54883885 141.57553071 833.23652824 141.62129276 839.92430561 C141.66468537 846.37578016 141.68865849 852.8270589 141.69904391 859.2786681 C141.70644705 861.74271416 141.72090323 864.20674924 141.74245517 866.67071217 C141.77140066 870.1163206 141.77549452 873.56111512 141.77363651 877.00682514 C141.78801761 878.03037601 141.80239871 879.05392689 141.81721561 880.10849445 C141.77658842 887.04982754 141.77658842 887.04982754 139.29115359 890.315602 C138.31520236 890.97631702 138.31520236 890.97631702 137.31953494 891.65037983 C136.98953494 890.99037983 136.65953494 890.33037983 136.31953494 889.65037983 C133.67953494 889.65037983 131.03953494 889.65037983 128.31953494 889.65037983 C128.31953494 889.98037983 128.31953494 890.31037983 128.31953494 890.65037983 C120.31953494 890.65037983 112.31953494 890.65037983 104.31953494 890.65037983 C104.31953494 889.99037983 104.31953494 889.33037983 104.31953494 888.65037983 C103.32953494 888.65037983 102.33953494 888.65037983 101.31953494 888.65037983 C101.31953494 897.23037983 101.31953494 905.81037983 101.31953494 914.65037983 C102.30953494 914.98037983 103.29953494 915.31037983 104.31953494 915.65037983 C-64.64046506 915.65037983 -233.60046506 915.65037983 -407.68046506 915.65037983 C-406.69046506 915.32037983 -405.70046506 914.99037983 -404.68046506 914.65037983 C-405.67046506 913.16537983 -405.67046506 913.16537983 -406.68046506 911.65037983 C-407.97426852 904.42460954 -407.77541862 896.96180433 -407.68046506 889.65037983 C-411.31046506 889.65037983 -414.94046506 889.65037983 -418.68046506 889.65037983 C-418.68046506 889.98037983 -418.68046506 890.31037983 -418.68046506 890.65037983 C-423.01379839 890.65037983 -427.34713172 890.65037983 -431.68046506 890.65037983 C-431.68046506 889.99037983 -431.68046506 889.33037983 -431.68046506 888.65037983 C-434.98046506 889.64037983 -438.28046506 890.63037983 -441.68046506 891.65037983 C-443.65208371 890.315602 -443.65208371 890.315602 -445.68046506 887.65037983 C-446.29014972 884.11041158 -446.18491802 880.59050133 -446.13456662 877.00682514 C-446.13515073 875.9235947 -446.13573483 874.84036427 -446.13633664 873.72430866 C-446.1335488 870.14204866 -446.10242232 866.56061957 -446.07109006 862.97850483 C-446.0636302 860.49557895 -446.05793606 858.01264719 -446.05393918 855.52971333 C-446.04022455 849.66127647 -446.00869595 843.79314664 -445.96854122 837.92483561 C-445.91942432 830.58730476 -445.89795714 823.24975633 -445.87577756 815.91209858 C-445.83287163 802.82470739 -445.76536414 789.7375625 -445.68046506 776.65037983 C-446.35721972 776.72231524 -447.03397439 776.79425066 -447.73123677 776.86836594 C-448.62426818 776.96098237 -449.51729958 777.0535988 -450.43739255 777.1490218 C-451.76189955 777.28786242 -451.76189955 777.28786242 -453.11316426 777.4295079 C-456.50250386 777.72110208 -459.82190372 777.66223658 -463.21952756 777.52928608 C-463.87125943 777.50567509 -464.5229913 777.48206409 -465.19447263 777.45773762 C-467.23177345 777.38249369 -469.26855105 777.29789253 -471.30546506 777.21287983 C-472.70518089 777.1595187 -474.10492059 777.10677991 -475.50468381 777.0546767 C-478.89689547 776.92600661 -482.28873511 776.79109036 -485.68046506 776.65037983 C-486.53366451 773.02787308 -486.74602023 769.8430882 -486.55937131 766.13084858 C-486.48686154 764.59847553 -486.48686154 764.59847553 -486.41288693 763.03514545 C-486.35681271 761.9800478 -486.30073849 760.92495014 -486.24296506 759.83787983 C-486.16465451 758.22622944 -486.16465451 758.22622944 -486.08476193 756.58202045 C-485.95548975 753.93781679 -485.82054069 751.29402956 -485.68046506 748.65037983 C-486.34046506 748.32037983 -487.00046506 747.99037983 -487.68046506 747.65037983 C-487.02046506 747.65037983 -486.36046506 747.65037983 -485.68046506 747.65037983 C-485.68046506 745.01037983 -485.68046506 742.37037983 -485.68046506 739.65037983 C-486.34046506 739.65037983 -487.00046506 739.65037983 -487.68046506 739.65037983 C-486.68046506 737.65037983 -486.68046506 737.65037983 -485.68046506 736.65037983 C-498.88046506 736.65037983 -512.08046506 736.65037983 -525.68046506 736.65037983 C-525.90278707 716.62980356 -526.08585266 696.60905923 -526.24296506 676.58787983 C-526.2493479 675.7796046 -526.25573074 674.97132936 -526.262307 674.13856094 C-526.92756306 589.39410108 -526.56463723 504.65004081 -526.25264503 419.9048376 C-526.24293693 417.26773846 -526.23325567 414.63063923 -526.22357734 411.99353998 C-526.05659743 366.54576174 -525.87563782 321.09804571 -525.68046506 275.65037983 C-526.34046506 275.32037983 -527.00046506 274.99037983 -527.68046506 274.65037983 C-527.02046506 274.65037983 -526.36046506 274.65037983 -525.68046506 274.65037983 C-525.71010342 273.51674503 -525.73974179 272.38311024 -525.77027829 271.21512287 C-526.60569729 238.59242119 -526.83954157 205.98535849 -526.81083615 173.35277241 C-526.80623821 168.05881861 -526.80604437 162.76488929 -526.81083615 157.47093647 C-526.81671218 150.91215547 -526.81750874 144.35339439 -526.81428082 137.79461163 C-526.81362783 135.35405091 -526.81438074 132.91348929 -526.81676038 130.47292965 C-526.83022665 112.83635953 -526.35812337 95.27454316 -525.68046506 77.65037983 C-513.14046506 77.65037983 -500.60046506 77.65037983 -487.68046506 77.65037983 C-486.12853413 74.54651797 -486.58026128 71.27217013 -486.61796506 67.86912983 C-486.62175168 67.0998415 -486.6255383 66.33055317 -486.62943967 65.53795307 C-486.64167826 63.07537247 -486.66030794 60.61290761 -486.68046506 58.15037983 C-486.70698277 54.91079965 -486.72701874 51.67127735 -486.74296506 48.43162983 C-486.7512634 47.68264423 -486.75956174 46.93365864 -486.76811154 46.16197651 C-486.79326687 40.87598345 -486.79326687 40.87598345 -485.68046506 38.65037983 C-472.48046506 38.32037983 -459.28046506 37.99037983 -445.68046506 37.65037983 C-446.04902334 25.84758834 -446.04902334 25.84758834 -446.42875607 14.04515522 C-446.47270155 12.57112759 -446.51626643 11.09708853 -446.55937131 9.62303608 C-446.58607907 8.85084736 -446.61278683 8.07865864 -446.64030392 7.28307026 C-446.69275844 5.40619191 -446.69240021 3.5279531 -446.68046506 1.65037983 C-444.554209 -0.47587623 -439.70866188 0.49085742 -436.76597531 0.48543232 C-435.81405978 0.47978701 -434.86214424 0.47414169 -433.88138278 0.46832531 C-430.64807424 0.45045667 -427.41478144 0.43984325 -424.18144162 0.42918842 C-421.85574721 0.41798646 -419.5300547 0.40638233 -417.20436414 0.39440792 C-411.45093533 0.36610471 -405.69750123 0.34272941 -399.94404152 0.3217009 C-395.15198653 0.304109 -390.35994307 0.28455229 -385.56790097 0.26375263 C-366.74073022 0.18228154 -347.91353175 0.11331616 -329.08629252 0.04979778 C-323.54332472 0.03103813 -318.00036021 0.01146792 -312.45739682 -0.00854809 C-227.0950989 -0.3162984 -141.73459857 -0.4091735 0 0 Z M108.31953494 888.65037983 C108.31953494 888.98037983 108.31953494 889.31037983 108.31953494 889.65037983 C109.96953494 889.65037983 111.61953494 889.65037983 113.31953494 889.65037983 C113.31953494 889.32037983 113.31953494 888.99037983 113.31953494 888.65037983 C111.66953494 888.65037983 110.01953494 888.65037983 108.31953494 888.65037983 Z " fill="#F392D4" transform="translate(663.6804650574923,108.34962017089128)"/>
<path d="M0 0 C167.64 0 335.28 0 508 0 C508 12.87 508 25.74 508 39 C521.2 39 534.4 39 548 39 C548 180.24 548 321.48 548 467 C534.8 467 521.6 467 508 467 C508 479.21 508 491.42 508 504 C340.36 504 172.72 504 0 504 C0 491.79 0 479.58 0 467 C-13.53 467 -27.06 467 -41 467 C-41 325.76 -41 184.52 -41 39 C-27.47 39 -13.94 39 0 39 C0 26.13 0 13.26 0 0 Z " fill="#2C3F58" transform="translate(258,228)"/>
<path d="M0 0 C0 13.2 0 26.4 0 40 C-12.87 40 -25.74 40 -39 40 C-39 257.14 -39 474.28 -39 698 C180.78 698 400.56 698 627 698 C627 480.86 627 263.72 627 40 C613.8 40 600.6 40 587 40 C587 27.13 587 14.26 587 1 C591.56816709 0.08636658 595.5468899 -0.0470848 600.14453125 0.12109375 C600.82753296 0.14175903 601.51053467 0.16242432 602.2142334 0.18371582 C604.74719086 0.26203152 607.27983116 0.35034825 609.8125 0.4375 C615.484375 0.623125 621.15625 0.80875 627 1 C627.33 13.54 627.66 26.08 628 39 C639.22 39.33 650.44 39.66 662 40 C662 39.34 662 38.68 662 38 C662.66 38 663.32 38 664 38 C664 38.66 664 39.32 664 40 C664.66 40 665.32 40 666 40 C667.22775114 45.73480397 667.13689818 51.36611288 667.12145996 57.19947815 C667.12239639 58.34449832 667.12333282 59.48951849 667.12429762 60.66923624 C667.12581966 63.87307114 667.12277894 67.07686487 667.11780286 70.28069511 C667.11339072 73.80825585 667.11470147 77.33581568 667.11515808 80.86337852 C667.11506893 87.97083427 667.10915842 95.0782751 667.1014173 102.18572618 C667.09501211 108.17811876 667.09088738 114.17050942 667.08811951 120.16290474 C667.04553499 210.24544097 666.84445579 300.32791823 666.55915749 434.36461376 C666.51440424 455.13459441 666.47050863 475.90457674 666.42724609 496.67456055 C666.42575204 497.39171151 666.42425798 498.10886247 666.42271865 498.84774527 C666.40770238 506.05596527 666.39270026 513.26418529 666.37770845 520.47240534 C666.3472243 535.12935458 666.31664632 549.78630363 666.28601074 564.44325256 C666.28390251 565.4519762 666.28390251 565.4519762 666.28175168 566.48107809 C666.18941945 610.65405542 666.09490038 654.82702812 666 699 C662.12373064 700.07297353 658.45758841 700.11022605 654.4609375 700.0625 C653.73887115 700.05871338 653.01680481 700.05492676 652.27285767 700.05102539 C649.97351028 700.0388393 647.67429008 700.02020297 645.375 700 C642.34114934 699.97346486 639.30736015 699.95345261 636.2734375 699.9375 C635.57447357 699.92920166 634.87550964 699.92090332 634.15536499 699.91235352 C630.45407121 699.83860644 630.45407121 699.83860644 627 701 C627.02618408 702.13542236 627.05236816 703.27084473 627.0793457 704.44067383 C627.16979777 708.65043456 627.22723044 712.86010937 627.2746582 717.07055664 C627.29981397 718.89329467 627.33394285 720.71593172 627.37719727 722.53833008 C627.43780546 725.15731693 627.46619761 727.77497153 627.48828125 730.39453125 C627.51408768 731.21025101 627.5398941 732.02597076 627.56648254 732.8664093 C627.56762695 735.17114258 627.56762695 735.17114258 627 739 C624.46948242 741.0378418 624.46948242 741.0378418 622 742 C622 741.34 622 740.68 622 740 C613.09 740 604.18 740 595 740 C595 740.33 595 740.66 595 741 C591.28400809 741.20086443 590.22791555 741.1519437 587 739 C587.00553076 739.85256567 587.00553076 739.85256567 587.01117325 740.72235489 C587.09950746 754.55169913 587.16544597 768.38099395 587.20724869 782.21055984 C587.22814256 788.89845902 587.25599577 795.58614841 587.30175781 802.27392578 C587.34515043 808.72540033 587.36912354 815.17667908 587.37950897 821.62828827 C587.38691211 824.09233433 587.40136828 826.55636941 587.42292023 829.02033234 C587.45186572 832.46594077 587.45595958 835.91073529 587.45410156 839.35644531 C587.46848267 840.37999619 587.48286377 841.40354706 587.49768066 842.45811462 C587.45705348 849.39944771 587.45705348 849.39944771 584.97161865 852.66522217 C583.99566742 853.32593719 583.99566742 853.32593719 583 854 C582.67 853.34 582.34 852.68 582 852 C579.36 852 576.72 852 574 852 C574 852.33 574 852.66 574 853 C566 853 558 853 550 853 C550 852.34 550 851.68 550 851 C549.01 851 548.02 851 547 851 C547 859.58 547 868.16 547 877 C547.99 877.33 548.98 877.66 550 878 C381.04 878 212.08 878 38 878 C38.99 877.67 39.98 877.34 41 877 C40.01 875.515 40.01 875.515 39 874 C37.70619654 866.77422971 37.90504644 859.3114245 38 852 C34.37 852 30.74 852 27 852 C27 852.33 27 852.66 27 853 C22.66666667 853 18.33333333 853 14 853 C14 852.34 14 851.68 14 851 C10.7 851.99 7.4 852.98 4 854 C2.02838135 852.66522217 2.02838135 852.66522217 0 850 C-0.60968466 846.46003175 -0.50445296 842.9401215 -0.45410156 839.35644531 C-0.45468567 838.27321487 -0.45526978 837.18998444 -0.45587158 836.07392883 C-0.45308374 832.49166883 -0.42195726 828.91023974 -0.390625 825.328125 C-0.38316514 822.84519912 -0.377471 820.36226736 -0.37347412 817.8793335 C-0.35975949 812.01089664 -0.32823089 806.14276681 -0.28807616 800.27445579 C-0.23895926 792.93692493 -0.21749209 785.5993765 -0.1953125 778.26171875 C-0.15240657 765.17432756 -0.08489908 752.08718267 0 739 C-0.67675467 739.07193542 -1.35350933 739.14387083 -2.05077171 739.21798611 C-2.94380312 739.31060254 -3.83683453 739.40321898 -4.75692749 739.49864197 C-6.08143449 739.63748259 -6.08143449 739.63748259 -7.4326992 739.77912807 C-10.82203881 740.07072225 -14.14143867 740.01185675 -17.5390625 739.87890625 C-18.19079437 739.85529526 -18.84252625 739.83168427 -19.51400757 739.80735779 C-21.5513084 739.73211387 -23.58808599 739.6475127 -25.625 739.5625 C-27.02471583 739.50913888 -28.42445553 739.45640008 -29.82421875 739.40429688 C-33.21643041 739.27562678 -36.60827006 739.14071053 -40 739 C-40.85319945 735.37749325 -41.06555517 732.19270837 -40.87890625 728.48046875 C-40.80639648 726.9480957 -40.80639648 726.9480957 -40.73242188 725.38476562 C-40.67634766 724.32966797 -40.62027344 723.27457031 -40.5625 722.1875 C-40.48418945 720.57584961 -40.48418945 720.57584961 -40.40429688 718.93164062 C-40.2750247 716.28743696 -40.14007564 713.64364973 -40 711 C-40.66 710.67 -41.32 710.34 -42 710 C-41.34 710 -40.68 710 -40 710 C-40 707.36 -40 704.72 -40 702 C-40.66 702 -41.32 702 -42 702 C-41 700 -41 700 -40 699 C-53.2 699 -66.4 699 -80 699 C-80.22232201 678.97942373 -80.4053876 658.9586794 -80.5625 638.9375 C-80.56888284 638.12922477 -80.57526568 637.32094954 -80.58184195 636.48818111 C-81.247098 551.74372125 -80.88417218 466.99966098 -80.57217997 382.25445777 C-80.56247187 379.61735863 -80.55279061 376.9802594 -80.54311228 374.34316015 C-80.37613237 328.89538191 -80.19517276 283.44766588 -80 238 C-80.66 237.67 -81.32 237.34 -82 237 C-81.34 237 -80.68 237 -80 237 C-80.02963837 235.8663652 -80.05927673 234.73273041 -80.08981323 233.56474304 C-80.92523223 200.94204137 -81.15907651 168.33497866 -81.13037109 135.70239258 C-81.12577315 130.40843878 -81.12557931 125.11450946 -81.13037109 119.82055664 C-81.13624712 113.26177564 -81.13704368 106.70301456 -81.13381577 100.1442318 C-81.13316277 97.70367108 -81.13391568 95.26310946 -81.13629532 92.82254982 C-81.1497616 75.1859797 -80.67765832 57.62416333 -80 40 C-67.46 40 -54.92 40 -42 40 C-40.44806907 36.89613814 -40.89979622 33.6217903 -40.9375 30.21875 C-40.94128662 29.44946167 -40.94507324 28.68017334 -40.94897461 27.88757324 C-40.96121321 25.42499264 -40.97984288 22.96252778 -41 20.5 C-41.02651771 17.26041982 -41.04655368 14.02089752 -41.0625 10.78125 C-41.07079834 10.0322644 -41.07909668 9.28327881 -41.08764648 8.51159668 C-41.11280181 3.22560362 -41.11280181 3.22560362 -40 1 C-34.62484606 0.85724976 -29.24968321 0.7148417 -23.87451172 0.57275391 C-22.04508213 0.52434598 -20.21565503 0.47584375 -18.38623047 0.42724609 C-15.76009761 0.35750056 -13.13395605 0.28809169 -10.5078125 0.21875 C-9.27649094 0.18593933 -9.27649094 0.18593933 -8.02029419 0.15246582 C-2.22774341 0 -2.22774341 0 0 0 Z M554 851 C554 851.33 554 851.66 554 852 C555.65 852 557.3 852 559 852 C559 851.67 559 851.34 559 851 C557.35 851 555.7 851 554 851 Z " fill="#C648AC" transform="translate(218,146)"/>
<path d="M0 0 C193.38 0 386.76 0 586 0 C586 36.96 586 73.92 586 112 C585.01 112.99 584.02 113.98 583 115 C582.67 114.34 582.34 113.68 582 113 C579.36 113 576.72 113 574 113 C574 113.33 574 113.66 574 114 C566 114 558 114 550 114 C550 113.34 550 112.68 550 112 C549.01 112 548.02 112 547 112 C547 120.58 547 129.16 547 138 C547.99 138.33 548.98 138.66 550 139 C381.04 139 212.08 139 38 139 C38.99 138.67 39.98 138.34 41 138 C40.34 137.01 39.68 136.02 39 135 C37.70619654 127.77422971 37.90504644 120.3114245 38 113 C34.37 113 30.74 113 27 113 C27 113.33 27 113.66 27 114 C22.66666667 114 18.33333333 114 14 114 C14 113.34 14 112.68 14 112 C10.7 112.99 7.4 113.98 4 115 C2.68 113.68 1.36 112.36 0 111 C0 74.37 0 37.74 0 0 Z M554 112 C554 112.33 554 112.66 554 113 C555.65 113 557.3 113 559 113 C559 112.67 559 112.34 559 112 C557.35 112 555.7 112 554 112 Z " fill="#781971" transform="translate(218,885)"/>
<path d="M0 0 C166.65 0 333.3 0 505 0 C505 24.42 505 48.84 505 74 C338.35 74 171.7 74 0 74 C0 49.58 0 25.16 0 0 Z " fill="#B53C9F" transform="translate(260,923)"/>
<path d="M0 0 C13.2 0 26.4 0 40 0 C40 141.24 40 282.48 40 428 C26.8 428.33 13.6 428.66 0 429 C-0.33 440.55 -0.66 452.1 -1 464 C-167.98 464 -334.96 464 -507 464 C-507 451.79 -507 439.58 -507 427 C-256.035 426.505 -256.035 426.505 0 426 C0 285.42 0 144.84 0 0 Z " fill="#7D1C75" transform="translate(766,267)"/>
<path d="M0 0 C12.21 0 24.42 0 37 0 C37 203.61 37 407.22 37 617 C24.79 617 12.58 617 0 617 C0 413.39 0 209.78 0 0 Z " fill="#C648AC" transform="translate(846,187)"/>
<path d="M0 0 C5.91041882 0.01997523 11.82083992 0.03912434 17.73126285 0.0578429 C37.74425231 0.1213512 57.75719732 0.19179085 77.77012394 0.27277739 C82.89572471 0.29333385 88.02133046 0.31164883 93.14694278 0.32906025 C99.89312763 0.35207509 106.63926895 0.38041086 113.38541715 0.41261666 C115.83962323 0.42357187 118.29383748 0.43283893 120.74805658 0.44032996 C124.06206425 0.45075451 127.37598455 0.4672435 130.68995731 0.48543232 C131.66377683 0.48709274 132.63759636 0.48875317 133.64092557 0.49046391 C134.51569846 0.49655485 135.39047135 0.5026458 136.2917525 0.50892132 C137.4309967 0.51372149 137.4309967 0.51372149 138.59325592 0.51861864 C140.31953494 0.65037983 140.31953494 0.65037983 141.31953494 1.65037983 C141.31953494 13.53037983 141.31953494 25.41037983 141.31953494 37.65037983 C-52.39046506 37.65037983 -246.10046506 37.65037983 -445.68046506 37.65037983 C-446.01046506 25.77037983 -446.34046506 13.89037983 -446.68046506 1.65037983 C-444.554209 -0.47587623 -439.70866188 0.49085742 -436.76597531 0.48543232 C-435.81405978 0.47978701 -434.86214424 0.47414169 -433.88138278 0.46832531 C-430.64807424 0.45045667 -427.41478144 0.43984325 -424.18144162 0.42918842 C-421.85574721 0.41798646 -419.5300547 0.40638233 -417.20436414 0.39440792 C-411.45093533 0.36610471 -405.69750123 0.34272941 -399.94404152 0.3217009 C-395.15198653 0.304109 -390.35994307 0.28455229 -385.56790097 0.26375263 C-366.74073022 0.18228154 -347.91353175 0.11331616 -329.08629252 0.04979778 C-323.54332472 0.03103813 -318.00036021 0.01146792 -312.45739682 -0.00854809 C-227.0950989 -0.3162984 -141.73459857 -0.4091735 0 0 Z " fill="#C345A9" transform="translate(663.6804650574923,108.34962017089128)"/>
<path d="M0 0 C166.98 0 333.96 0 506 0 C506 12.54 506 25.08 506 38 C339.02 38 172.04 38 0 38 C0 25.46 0 12.92 0 0 Z " fill="#7F1C76" transform="translate(259,229)"/>
<path d="M0 0 C166.32 0 332.64 0 504 0 C504 0.33 504 0.66 504 1 C338.01 1 172.02 1 1 1 C1 13.87 1 26.74 1 40 C166.99 40 332.98 40 504 40 C504 27.46 504 14.92 504 2 C504.33 2 504.66 2 505 2 C505 25.76 505 49.52 505 74 C338.35 74 171.7 74 0 74 C0 49.58 0 25.16 0 0 Z " fill="#C848AC" transform="translate(260,923)"/>
<path d="M0 0 C13.53 0 27.06 0 41 0 C41 141.24 41 282.48 41 428 C27.47 428 13.94 428 0 428 C0 286.76 0 145.52 0 0 Z " fill="#7F1C77" transform="translate(217,267)"/>
<path d="M0 0 C40.11211515 -0.02286477 80.22422945 -0.04049741 120.33634981 -0.05106533 C125.06676252 -0.05231611 129.79717521 -0.05361042 134.52758789 -0.05493164 C135.46936923 -0.05519395 136.41115058 -0.05545626 137.38147075 -0.05572652 C152.6514994 -0.06008356 167.9215243 -0.06797129 183.19155072 -0.0771528 C198.84787712 -0.0864884 214.50420156 -0.09205541 230.16053063 -0.09408849 C239.8294075 -0.09546392 249.49827379 -0.09981554 259.16714741 -0.10791647 C265.78809374 -0.11318278 272.40903457 -0.11480456 279.02998286 -0.11350138 C282.85584243 -0.11285782 286.68168344 -0.11387753 290.50753975 -0.11920547 C294.64541462 -0.1249262 298.78324943 -0.12300124 302.92112732 -0.12025452 C304.75523113 -0.12462378 304.75523113 -0.12462378 306.62638754 -0.12908131 C307.72564819 -0.12709026 308.82490885 -0.12509921 309.95748043 -0.12304783 C310.91399594 -0.12342755 311.87051145 -0.12380727 312.85601228 -0.1241985 C315 0 315 0 316 1 C316.10095564 3.65456193 316.13970998 6.28255176 316.1328125 8.9375 C316.13424759 10.13040649 316.13424759 10.13040649 316.13571167 11.34741211 C316.13639343 13.0320646 316.13453943 14.71671971 316.13037109 16.40136719 C316.12502275 18.98899197 316.13031619 21.57644316 316.13671875 24.1640625 C316.13605797 25.79687539 316.1347768 27.42968816 316.1328125 29.0625 C316.13483673 29.84165771 316.13686096 30.62081543 316.13894653 31.42358398 C316.11495105 36.88504895 316.11495105 36.88504895 315 38 C313.32764781 38.0981209 311.6511193 38.12555573 309.97589111 38.12584114 C308.88073055 38.12844889 307.78556999 38.13105664 306.65722275 38.13374341 C305.43905994 38.13151268 304.22089714 38.12928196 302.96582031 38.12698364 C301.68343601 38.12854363 300.40105171 38.13010362 299.07980728 38.13171089 C295.50389429 38.13590867 291.92800777 38.13381151 288.35209465 38.13072467 C284.50202118 38.1284726 280.65195243 38.13194921 276.80187988 38.13470459 C269.25310199 38.13916337 261.70433401 38.13818534 254.15555573 38.13529195 C248.02334003 38.13303834 241.89112712 38.13272521 235.75891113 38.13381577 C234.45235231 38.13404561 234.45235231 38.13404561 233.11939836 38.13428011 C231.35018762 38.13459982 229.58097688 38.13492403 227.81176615 38.1352527 C211.20154596 38.13810781 194.59133129 38.13481999 177.981112 38.12945233 C163.71266566 38.12498427 149.44422745 38.12576019 135.17578125 38.13037109 C118.62710816 38.13571632 102.07843991 38.13783311 85.52976608 38.13475883 C83.76687368 38.13444026 82.00398127 38.13412589 80.24108887 38.13381577 C78.93984648 38.13358435 78.93984648 38.13358435 77.61231637 38.13334826 C71.48377126 38.13248295 65.35522921 38.13394629 59.22668457 38.13629532 C51.76334371 38.13909294 44.30001338 38.13835586 36.83667374 38.13301457 C33.02498546 38.13037705 29.21331476 38.12937336 25.40162659 38.13266373 C21.27912882 38.13616871 17.15667587 38.13199856 13.03417969 38.12698364 C11.81601688 38.12921436 10.59785408 38.13144509 9.34277725 38.13374341 C8.24761669 38.13113566 7.15245613 38.12852791 6.02410889 38.12584114 C4.59470537 38.12559761 4.59470537 38.12559761 3.13642502 38.12534916 C1 38 1 38 0 37 C-0.08858646 34.26105915 -0.11523479 31.5474673 -0.09765625 28.80859375 C-0.0962413 27.98875504 -0.09482635 27.16891632 -0.09336853 26.32423401 C-0.08775289 23.69528618 -0.07519779 21.06642227 -0.0625 18.4375 C-0.05748701 16.65950643 -0.05292376 14.88151154 -0.04882812 13.10351562 C-0.03777839 8.73564455 -0.02050331 4.36783652 0 0 Z " fill="#46AE7B" transform="translate(374,539)"/>
<path d="M0 0 C1.09516056 -0.00260775 2.19032112 -0.00521549 3.31866837 -0.00790226 C4.53683117 -0.00567154 5.75499397 -0.00344082 7.0100708 -0.0011425 C8.2924551 -0.00270249 9.5748394 -0.00426248 10.89608383 -0.00586975 C14.47199683 -0.01006753 18.04788334 -0.00797037 21.62379646 -0.00488353 C25.47386993 -0.00263146 29.32393868 -0.00610807 33.17401123 -0.00886345 C40.72278912 -0.01332222 48.2715571 -0.0123442 55.82033539 -0.00945081 C61.95255108 -0.00719719 68.08476399 -0.00688407 74.21697998 -0.00797462 C75.52353881 -0.00820447 75.52353881 -0.00820447 76.85649276 -0.00843897 C78.62570349 -0.00875868 80.39491423 -0.00908289 82.16412497 -0.00941156 C98.77434515 -0.01226666 115.38455983 -0.00897885 131.99477911 -0.00361119 C146.26322545 0.00085687 160.53166367 0.00008095 174.80010986 -0.00452995 C191.34878295 -0.00987518 207.8974512 -0.01199197 224.44612503 -0.00891769 C226.20901743 -0.00859912 227.97190984 -0.00828475 229.73480225 -0.00797462 C231.03604463 -0.00774321 231.03604463 -0.00774321 232.36357474 -0.00750712 C238.49211985 -0.00664181 244.62066191 -0.00810515 250.74920654 -0.01045418 C258.2125474 -0.0132518 265.67587773 -0.01251472 273.13921738 -0.00717343 C276.95090566 -0.0045359 280.76257636 -0.00353222 284.57426453 -0.00682259 C288.69676229 -0.01032757 292.81921524 -0.00615742 296.94171143 -0.0011425 C298.15987423 -0.00337322 299.37803703 -0.00560395 300.63311386 -0.00790226 C301.72827442 -0.00529452 302.82343498 -0.00268677 303.95178223 0 C305.38118574 0.00024353 305.38118574 0.00024353 306.83946609 0.00049198 C308.97589111 0.12584114 308.97589111 0.12584114 309.97589111 1.12584114 C310.07684676 3.78040307 310.1156011 6.4083929 310.10870361 9.06334114 C310.1101387 10.25624763 310.1101387 10.25624763 310.11160278 11.47325325 C310.11228454 13.15790575 310.11043054 14.84256085 310.10626221 16.52720833 C310.10091387 19.11483311 310.1062073 21.7022843 310.11260986 24.28990364 C310.11194908 25.92271653 310.11066792 27.5555293 310.10870361 29.18834114 C310.11072784 29.96749886 310.11275208 30.74665657 310.11483765 31.54942513 C310.09084216 37.0108901 310.09084216 37.0108901 308.97589111 38.12584114 C307.30353892 38.22396204 305.62701042 38.25139687 303.95178223 38.25168228 C302.85662167 38.25429003 301.76146111 38.25689778 300.63311386 38.25958455 C299.41495106 38.25735382 298.19678825 38.2551231 296.94171143 38.25282478 C295.65932713 38.25438477 294.37694283 38.25594476 293.05569839 38.25755203 C289.4797854 38.26174981 285.90389889 38.25965265 282.32798576 38.25656581 C278.47791229 38.25431374 274.62784354 38.25779035 270.777771 38.26054573 C263.2289931 38.26500451 255.68022513 38.26402649 248.13144684 38.26113309 C241.99923114 38.25887948 235.86701824 38.25856635 229.73480225 38.25965691 C228.42824342 38.25988676 228.42824342 38.25988676 227.09528947 38.26012125 C225.32607873 38.26044096 223.556868 38.26076517 221.78765726 38.26109384 C205.17743708 38.26394895 188.5672224 38.26066113 171.95700312 38.25529347 C157.68855677 38.25082541 143.42011856 38.25160133 129.15167236 38.25621223 C112.60299928 38.26155746 96.05433103 38.26367425 79.5056572 38.26059997 C77.74276479 38.2602814 75.97987239 38.25996703 74.21697998 38.25965691 C72.91573759 38.25942549 72.91573759 38.25942549 71.58820748 38.2591894 C65.45966237 38.25832409 59.33112032 38.25978743 53.20257568 38.26213646 C45.73923483 38.26493408 38.27590449 38.264197 30.81256485 38.25885572 C27.00087657 38.25621819 23.18920587 38.2552145 19.3775177 38.25850487 C15.25501993 38.26200985 11.13256699 38.2578397 7.0100708 38.25282478 C5.791908 38.25505551 4.57374519 38.25728623 3.31866837 38.25958455 C2.2235078 38.2569768 1.12834724 38.25436905 0 38.25168228 C-1.42940351 38.25143875 -1.42940351 38.25143875 -2.88768387 38.2511903 C-5.02410889 38.12584114 -5.02410889 38.12584114 -6.02410889 37.12584114 C-6.12506453 34.47127921 -6.16381887 31.84328938 -6.15692139 29.18834114 C-6.15787811 28.39307014 -6.15883484 27.59779915 -6.15982056 26.77842903 C-6.16050232 25.09377654 -6.15864831 23.40912143 -6.15447998 21.72447395 C-6.14913164 19.13684917 -6.15442508 16.54939798 -6.16082764 13.96177864 C-6.16016685 12.32896576 -6.15888569 10.69615298 -6.15692139 9.06334114 C-6.15894562 8.28418343 -6.16096985 7.50502571 -6.16305542 6.70225716 C-6.13603019 0.55121085 -6.10129203 0.00103948 0 0 Z " fill="#45AC7A" transform="translate(380.02410888671875,462.87415885925293)"/>
<path d="M0 0 C1.64524467 0.04234901 3.29034903 0.09037435 4.93530273 0.14282227 C5.79953354 0.16643326 6.66376434 0.19004425 7.55418396 0.21437073 C10.32591396 0.29120113 13.09737804 0.37514147 15.86889648 0.45922852 C17.74323225 0.51242983 19.61758115 0.56517034 21.49194336 0.61743164 C26.09697914 0.74597274 30.701587 0.88411352 35.30639648 1.02172852 C35.63639648 13.56172852 35.96639648 26.10172852 36.30639648 39.02172852 C47.52639648 39.35172852 58.74639648 39.68172852 70.30639648 40.02172852 C70.30639648 39.36172852 70.30639648 38.70172852 70.30639648 38.02172852 C70.96639648 38.02172852 71.62639648 38.02172852 72.30639648 38.02172852 C72.30639648 38.68172852 72.30639648 39.34172852 72.30639648 40.02172852 C72.96639648 40.02172852 73.62639648 40.02172852 74.30639648 40.02172852 C75.53414762 45.75653248 75.44329466 51.38784139 75.42785645 57.22120667 C75.42879287 58.36622684 75.4297293 59.51124701 75.4306941 60.69096476 C75.43221614 63.89479966 75.42917542 67.09859338 75.42419934 70.30242363 C75.4197872 73.82998436 75.42109796 77.3575442 75.42155457 80.88510704 C75.42146542 87.99256278 75.4155549 95.10000362 75.40781379 102.2074547 C75.4014086 108.19984728 75.39728386 114.19223793 75.39451599 120.18463326 C75.35193147 210.26716949 75.15085227 300.34964675 74.86555398 434.38634227 C74.82080072 455.15632292 74.77690511 475.92630525 74.73364258 496.69628906 C74.73214852 497.41344002 74.73065447 498.13059098 74.72911514 498.86947379 C74.71409887 506.07769378 74.69909674 513.28591381 74.68410494 520.49413385 C74.65362079 535.1510831 74.62304281 549.80803215 74.59240723 564.46498108 C74.59029899 565.47370472 74.59029899 565.47370472 74.58814817 566.50280661 C74.49581594 610.67578394 74.40129687 654.84875664 74.30639648 699.02172852 C70.43012712 700.09470205 66.7639849 700.13195456 62.76733398 700.08422852 C62.04526764 700.08044189 61.32320129 700.07665527 60.57925415 700.07275391 C58.27990676 700.06056782 55.98068656 700.04193148 53.68139648 700.02172852 C50.64754583 699.99519338 47.61375663 699.97518112 44.57983398 699.95922852 C43.88087006 699.95093018 43.18190613 699.94263184 42.46176147 699.93408203 C38.76046769 699.86033495 38.76046769 699.86033495 35.30639648 701.02172852 C35.33258057 702.15715088 35.35876465 703.29257324 35.38574219 704.46240234 C35.47619426 708.67216308 35.53362692 712.88183789 35.58105469 717.09228516 C35.60621045 718.91502319 35.64033933 720.73766023 35.68359375 722.56005859 C35.74420194 725.17904544 35.7725941 727.79670004 35.79467773 730.41625977 C35.82048416 731.23197952 35.84629059 732.04769928 35.87287903 732.88813782 C35.87402344 735.19287109 35.87402344 735.19287109 35.30639648 739.02172852 C32.77587891 741.05957031 32.77587891 741.05957031 30.30639648 742.02172852 C30.30639648 741.36172852 30.30639648 740.70172852 30.30639648 740.02172852 C21.39639648 740.02172852 12.48639648 740.02172852 3.30639648 740.02172852 C3.30639648 740.35172852 3.30639648 740.68172852 3.30639648 741.02172852 C-0.40959542 741.22259294 -1.46568797 741.17367221 -4.69360352 739.02172852 C-4.69360352 775.65172852 -4.69360352 812.28172852 -4.69360352 850.02172852 C-5.02360352 850.02172852 -5.35360352 850.02172852 -5.69360352 850.02172852 C-5.7170983 836.09230378 -5.734703 822.162884 -5.74541569 808.23344326 C-5.75056529 801.76076479 -5.75751264 795.28810018 -5.76904297 788.81542969 C-5.7801614 782.53239373 -5.78593937 776.24937082 -5.78848076 769.96632576 C-5.79028431 767.60659645 -5.79380033 765.2468676 -5.79933357 762.88714409 C-5.84717596 741.57446328 -5.24032936 720.34403662 -4.69360352 699.02172852 C-198.07360352 699.02172852 -391.45360352 699.02172852 -590.69360352 699.02172852 C-590.69360352 712.22172852 -590.69360352 725.42172852 -590.69360352 739.02172852 C-603.06860352 740.14672852 -603.06860352 740.14672852 -609.33032227 739.90063477 C-610.64838867 739.85229492 -611.96645508 739.80395508 -613.32446289 739.75415039 C-614.67668291 739.69766463 -616.02889639 739.64102219 -617.38110352 739.58422852 C-618.77626129 739.53084941 -620.17144373 739.47811093 -621.56665039 739.42602539 C-624.94259702 739.29752915 -628.31815555 739.16262511 -631.69360352 739.02172852 C-632.54680297 735.39922176 -632.75915869 732.21443689 -632.57250977 728.50219727 C-632.5 726.96982422 -632.5 726.96982422 -632.42602539 725.40649414 C-632.36995117 724.35139648 -632.31387695 723.29629883 -632.25610352 722.20922852 C-632.17779297 720.59757813 -632.17779297 720.59757813 -632.09790039 718.95336914 C-631.96862821 716.30916548 -631.83367915 713.66537824 -631.69360352 711.02172852 C-632.35360352 710.69172852 -633.01360352 710.36172852 -633.69360352 710.02172852 C-633.03360352 710.02172852 -632.37360352 710.02172852 -631.69360352 710.02172852 C-631.69360352 707.38172852 -631.69360352 704.74172852 -631.69360352 702.02172852 C-632.35360352 702.02172852 -633.01360352 702.02172852 -633.69360352 702.02172852 C-632.69360352 700.02172852 -632.69360352 700.02172852 -631.69360352 699.02172852 C-644.89360352 699.02172852 -658.09360352 699.02172852 -671.69360352 699.02172852 C-671.91592553 679.00115225 -672.09899112 658.98040791 -672.25610352 638.95922852 C-672.26248636 638.15095328 -672.2688692 637.34267805 -672.27544546 636.50990963 C-672.94070152 551.76544977 -672.57777569 467.0213895 -672.26578349 382.27618629 C-672.25607539 379.63908715 -672.24639412 377.00198791 -672.23671579 374.36488867 C-672.06973588 328.91711043 -671.88877628 283.4693944 -671.69360352 238.02172852 C-672.35360352 237.69172852 -673.01360352 237.36172852 -673.69360352 237.02172852 C-673.03360352 237.02172852 -672.37360352 237.02172852 -671.69360352 237.02172852 C-671.72324188 235.88809372 -671.75288025 234.75445892 -671.78341675 233.58647156 C-672.61883574 200.96376988 -672.85268002 168.35670718 -672.82397461 135.72412109 C-672.81937667 130.43016729 -672.81918283 125.13623798 -672.82397461 119.84228516 C-672.82985064 113.28350416 -672.8306472 106.72474307 -672.82741928 100.16596031 C-672.82676629 97.7253996 -672.8275192 95.28483797 -672.82989883 92.84427834 C-672.84336511 75.20770822 -672.37126183 57.64589184 -671.69360352 40.02172852 C-659.15360352 40.02172852 -646.61360352 40.02172852 -633.69360352 40.02172852 C-633.69360352 40.35172852 -633.69360352 40.68172852 -633.69360352 41.02172852 C-645.90360352 41.02172852 -658.11360352 41.02172852 -670.69360352 41.02172852 C-670.69360352 244.63172852 -670.69360352 448.24172852 -670.69360352 658.02172852 C-658.15360352 658.02172852 -645.61360352 658.02172852 -632.69360352 658.02172852 C-632.69360352 454.08172852 -632.69360352 250.14172852 -632.69360352 40.02172852 C-632.36360352 40.02172852 -632.03360352 40.02172852 -631.69360352 40.02172852 C-631.69360352 257.16172852 -631.69360352 474.30172852 -631.69360352 698.02172852 C-411.58360352 698.02172852 -191.47360352 698.02172852 35.30639648 698.02172852 C35.30639648 480.88172852 35.30639648 263.74172852 35.30639648 40.02172852 C22.10639648 40.02172852 8.90639648 40.02172852 -4.69360352 40.02172852 C-4.72454102 30.40016602 -4.72454102 30.40016602 -4.75610352 20.58422852 C-4.76520752 18.5572583 -4.77431152 16.53028809 -4.78369141 14.44189453 C-4.78661055 12.84480862 -4.78915911 11.24772197 -4.79125977 9.65063477 C-4.79637573 8.81367065 -4.8014917 7.97670654 -4.8067627 7.11437988 C-4.80707276 5.08314586 -4.75600539 3.0520038 -4.69360352 1.02172852 C-3.69360352 0.02172852 -3.69360352 0.02172852 0 0 Z M36.30639648 41.02172852 C36.30639648 244.63172852 36.30639648 448.24172852 36.30639648 658.02172852 C48.51639648 658.02172852 60.72639648 658.02172852 73.30639648 658.02172852 C73.30639648 454.41172852 73.30639648 250.80172852 73.30639648 41.02172852 C61.09639648 41.02172852 48.88639648 41.02172852 36.30639648 41.02172852 Z " fill="#A82D91" transform="translate(809.693603515625,145.978271484375)"/>
<path d="M0 0 C0.80183134 0.00223072 1.60366267 0.00446144 2.42979193 0.00675976 C3.69795822 0.00441978 3.69795822 0.00441978 4.99174404 0.00203252 C7.84696515 -0.00198114 10.70213382 0.00121357 13.5573554 0.00434887 C15.59526364 0.002995 17.63317163 0.00121514 19.67107916 -0.00096118 C25.222569 -0.00553711 30.77404035 -0.00374531 36.32553053 -0.0005821 C42.12135256 0.00194068 47.91717296 -0.00039581 53.71299505 -0.00196826 C63.44806469 -0.0037902 73.18312676 -0.00138302 82.91819525 0.00337231 C94.19090125 0.00881498 105.46358918 0.00705234 116.73629475 0.00154591 C126.39570013 -0.00298454 136.05510005 -0.00363611 145.71450615 -0.00101542 C151.49201552 0.00054773 157.26951637 0.00074008 163.0470252 -0.00255191 C168.4773031 -0.00542964 173.90755757 -0.00345676 179.33783293 0.00234234 C181.3369844 0.00367047 183.33613782 0.00327494 185.33528852 0.00107968 C188.05211949 -0.00162976 190.76887411 0.00174675 193.48570013 0.00675976 C194.28753147 0.00452904 195.0893628 0.00229832 195.91549206 0 C201.34359619 0.01959357 201.34359619 0.01959357 202.45774603 1.13374341 C202.55870167 3.78830534 202.59745601 6.41629516 202.59055853 9.07124341 C202.59151525 9.8665144 202.59247198 10.6617854 202.5934577 11.48115551 C202.59413946 13.16580801 202.59228545 14.85046312 202.58811712 16.53511059 C202.58276878 19.12273537 202.58806222 21.71018656 202.59446478 24.29780591 C202.593804 25.93061879 202.59252283 27.56343157 202.59055853 29.19624341 C202.59258276 29.97540112 202.59460699 30.75455884 202.59669256 31.55732739 C202.57269707 37.01879236 202.57269707 37.01879236 201.45774603 38.13374341 C198.79195976 38.23379129 196.15201284 38.26814482 193.48570013 38.26072705 C192.21753383 38.26306703 192.21753383 38.26306703 190.92374802 38.26545429 C188.06852691 38.26946795 185.21335823 38.26627324 182.35813665 38.26313794 C180.32022842 38.26449182 178.28232042 38.26627167 176.2444129 38.268448 C170.69292306 38.27302392 165.14145171 38.27123212 159.58996153 38.26806891 C153.79413949 38.26554613 147.9983191 38.26788262 142.20249701 38.26945508 C132.46742737 38.27127701 122.7323653 38.26886983 112.99729681 38.2641145 C101.7245908 38.25867183 90.45190288 38.26043447 79.17919731 38.2659409 C69.51979193 38.27047135 59.86039201 38.27112292 50.20098591 38.26850224 C44.42347654 38.26693908 38.64597568 38.26674673 32.86846685 38.27003872 C27.43818895 38.27291645 22.00793448 38.27094357 16.57765913 38.26514447 C14.57850766 38.26381634 12.57935424 38.26421187 10.58020353 38.26640713 C7.86337257 38.26911657 5.14661795 38.26574006 2.42979193 38.26072705 C1.62796059 38.26295777 0.82612926 38.26518849 0 38.26748681 C-5.42810414 38.24789324 -5.42810414 38.24789324 -6.54225397 37.13374341 C-6.64320961 34.47918147 -6.68196396 31.85119165 -6.67506647 29.19624341 C-6.6760232 28.40097241 -6.67697992 27.60570141 -6.67796564 26.7863313 C-6.6786474 25.1016788 -6.6767934 23.41702369 -6.67262506 21.73237622 C-6.66727672 19.14475144 -6.67257016 16.55730025 -6.67897272 13.96968091 C-6.67831194 12.33686802 -6.67703077 10.70405524 -6.67506647 9.07124341 C-6.6770907 8.29208569 -6.67911493 7.51292798 -6.6812005 6.71015942 C-6.65284779 0.25697214 -6.44953371 0.02328058 0 0 Z " fill="#45AD7A" transform="translate(417.54225397109985,306.8662565946579)"/>
<path d="M0 0 C65.34 0 130.68 0 198 0 C198 13.2 198 26.4 198 40 C132.66 40 67.32 40 0 40 C0 26.8 0 13.6 0 0 Z " fill="#C547AA" transform="translate(568,770)"/>
<path d="M0 0 C193.05 0 386.1 0 585 0 C585 12.87 585 25.74 585 39 C584.67 39 584.34 39 584 39 C584 26.46 584 13.92 584 1 C405.8 1 227.6 1 44 1 C44 13.87 44 26.74 44 40 C29.15 40 14.3 40 -1 40 C-1 53.2 -1 66.4 -1 80 C-13.54 80 -26.08 80 -39 80 C-39 270.41 -39 460.82 -39 657 C-39.33 657 -39.66 657 -40 657 C-40 453.06 -40 249.12 -40 39 C-26.8 39 -13.6 39 0 39 C0 26.13 0 13.26 0 0 Z " fill="#FEBAF1" transform="translate(219,147)"/>
<path d="M0 0 C1.2485686 0.00138269 1.2485686 0.00138269 2.5223608 0.00279331 C3.47453487 0.00141865 4.42670895 0.00004398 5.40773678 -0.00137234 C6.46077496 0.00222294 7.51381313 0.00581821 8.59876156 0.00952244 C10.25221081 0.0093034 10.25221081 0.0093034 11.93906307 0.00907993 C15.60226021 0.00977961 19.26540723 0.01757459 22.92859554 0.02539158 C25.46065398 0.02725556 27.99271277 0.02867956 30.52477169 0.0296793 C36.52067179 0.03311437 42.51655019 0.04100514 48.51244158 0.05102879 C55.33699987 0.06219105 62.16155901 0.06770066 68.98612416 0.07272422 C83.02815778 0.08318779 97.07016848 0.10153282 111.11218929 0.12304783 C111.11218929 12.33304783 111.11218929 24.54304783 111.11218929 37.12304783 C73.49218929 37.12304783 35.87218929 37.12304783 -2.88781071 37.12304783 C-2.88781071 0.188228 -2.88781071 0.188228 0 0 Z " fill="#45AE7B" transform="translate(453.8878107070923,385.8769521713257)"/>
<path d="M0 0 C337.92 0 675.84 0 1024 0 C1024 337.92 1024 675.84 1024 1024 C1023.34 1023.67 1022.68 1023.34 1022 1023 C1022.495 517.11 1022.495 517.11 1023 1 C686.07 1.33 349.14 1.66 2 2 C1.67 339.26 1.34 676.52 1 1024 C0.67 1024 0.34 1024 0 1024 C0 686.08 0 348.16 0 0 Z " fill="#655260" transform="translate(0,0)"/>
<path d="M0 0 C1.0442086 0.00303635 1.0442086 0.00303635 2.10951233 0.00613403 C2.83956985 0.00438171 3.56962738 0.00262939 4.32180786 0.00082397 C6.74650924 -0.00359443 9.17113828 -0.00065661 11.59584045 0.00271606 C13.27353428 0.00204302 14.95122802 0.00107299 16.62892151 -0.00018311 C20.14964219 -0.00166006 23.67033755 0.0004944 27.1910553 0.00515747 C31.71419541 0.01085476 36.23727619 0.00757574 40.76041412 0.00158501 C44.22611441 -0.00202067 47.69180052 -0.00088199 51.15750122 0.0017128 C52.8257447 0.00238205 54.49398945 0.00155371 56.16223145 -0.00076675 C58.48974539 -0.00329339 60.81716193 0.00054744 63.14466858 0.00613403 C63.84080765 0.0041098 64.53694672 0.00208557 65.25418091 0 C70.01282772 0.02126583 70.01282772 0.02126583 71.12709045 1.13552856 C71.2280461 3.7900905 71.26680044 6.41808032 71.25990295 9.07302856 C71.26085968 9.86829956 71.26181641 10.66357056 71.26280212 11.48294067 C71.26348389 13.16759317 71.26162988 14.85224828 71.25746155 16.53689575 C71.25211321 19.12452053 71.25740664 21.71197172 71.2638092 24.29959106 C71.26314842 25.93240395 71.26186726 27.56521673 71.25990295 29.19802856 C71.26192719 29.97718628 71.26395142 30.75634399 71.26603699 31.55911255 C71.2420415 37.02057752 71.2420415 37.02057752 70.12709045 38.13552856 C67.7899472 38.23576411 65.4823472 38.27172059 63.14466858 38.2649231 C62.04958229 38.26755157 62.04958229 38.26755157 60.93237305 38.27023315 C58.50767167 38.27465156 56.08304263 38.27171373 53.65834045 38.26834106 C51.98064663 38.26901411 50.30295289 38.26998414 48.6252594 38.27124023 C45.10453872 38.27271719 41.58384336 38.27056273 38.06312561 38.26589966 C33.5399855 38.26020237 29.01690472 38.26348138 24.49376678 38.26947212 C21.0280665 38.2730778 17.56238039 38.27193912 14.09667969 38.26934433 C12.42843621 38.26867508 10.76019146 38.26950342 9.09194946 38.27182388 C6.76443552 38.27435052 4.43701898 38.27050969 2.10951233 38.2649231 C1.41337326 38.26694733 0.71723419 38.26897156 0 38.27105713 C-4.75864681 38.2497913 -4.75864681 38.2497913 -5.87290955 37.13552856 C-5.97386519 34.48096663 -6.01261953 31.85297681 -6.00572205 29.19802856 C-6.00667877 28.40275757 -6.0076355 27.60748657 -6.00862122 26.78811646 C-6.00930298 25.10346396 -6.00744897 23.41880885 -6.00328064 21.73416138 C-5.9979323 19.1465366 -6.00322574 16.55908541 -6.0096283 13.97146606 C-6.00896751 12.33865318 -6.00768635 10.7058404 -6.00572205 9.07302856 C-6.00774628 8.29387085 -6.00977051 7.51471313 -6.01185608 6.71194458 C-5.98248395 0.02673501 -5.98248395 0.02673501 0 0 Z " fill="#46AE7B" transform="translate(301.87290954589844,306.8644714355469)"/>
<path d="M0 0 C25.08 0 50.16 0 76 0 C76 12.21 76 24.42 76 37 C50.92 37 25.84 37 0 37 C0 24.79 0 12.58 0 0 Z " fill="#46AF7C" transform="translate(335,386)"/>
<path d="M0 0 C24.75 0 49.5 0 75 0 C75 12.21 75 24.42 75 37 C56.57223038 37.04010881 56.57223038 37.04010881 48.74414062 37.04882812 C43.39330052 37.05481629 38.04247745 37.06191588 32.69165039 37.07543945 C28.37988027 37.08626929 24.06812841 37.09227704 19.75634575 37.09487724 C18.10763702 37.09673132 16.45892934 37.1003516 14.81022835 37.10573006 C12.50896128 37.11294178 10.2077706 37.11399089 7.90649414 37.11352539 C5.93792198 37.11685631 5.93792198 37.11685631 3.92958069 37.12025452 C1 37 1 37 0 36 C0 24.12 0 12.24 0 0 Z " fill="#46AF7C" transform="translate(335,617)"/>
<path d="M0 0 C180.51 0 361.02 0 547 0 C547 0.33 547 0.66 547 1 C533.8 1.33 520.6 1.66 507 2 C506.67 13.55 506.34 25.1 506 37 C339.02 37 172.04 37 0 37 C0 33.37 0 29.74 0 26 C0.33 26 0.66 26 1 26 C1 29.3 1 32.6 1 36 C167.32 36 333.64 36 505 36 C505 24.78 505 13.56 505 2 C338.35 2 171.7 2 0 2 C0 1.34 0 0.68 0 0 Z " fill="#971E84" transform="translate(259,694)"/>
<path d="M0 0 C1.64524224 0.04244328 3.2903504 0.09033137 4.93530273 0.14282227 C5.70096558 0.16348755 6.46662842 0.18415283 7.25549316 0.20544434 C10.12678684 0.28444995 12.99782917 0.37238555 15.86889648 0.45922852 C22.28327148 0.64485352 28.69764648 0.83047852 35.30639648 1.02172852 C35.63639648 13.89172852 35.96639648 26.76172852 36.30639648 40.02172852 C22.77639648 40.02172852 9.24639648 40.02172852 -4.69360352 40.02172852 C-4.71422852 33.60735352 -4.73485352 27.19297852 -4.75610352 20.58422852 C-4.76520752 18.5572583 -4.77431152 16.53028809 -4.78369141 14.44189453 C-4.78661055 12.84480862 -4.78915911 11.24772197 -4.79125977 9.65063477 C-4.79637573 8.81367065 -4.8014917 7.97670654 -4.8067627 7.11437988 C-4.80707276 5.08314586 -4.75600539 3.0520038 -4.69360352 1.02172852 C-3.69360352 0.02172852 -3.69360352 0.02172852 0 0 Z " fill="#C245A8" transform="translate(809.693603515625,145.978271484375)"/>
<path d="M0 0 C13.2 0 26.4 0 40 0 C40 13.2 40 26.4 40 40 C39.01 39.505 39.01 39.505 38 39 C35.155938 38.91309707 32.33600298 38.88438787 29.4921875 38.90234375 C28.74718994 38.90335083 28.00219238 38.90435791 27.23461914 38.90539551 C24.4480638 38.91063286 21.66153038 38.92459411 18.875 38.9375 C12.64625 38.958125 6.4175 38.97875 0 39 C0 26.13 0 13.26 0 0 Z " fill="#DE6BC1" transform="translate(805,804)"/>
<path d="M0 0 C1.02450256 0.00151062 1.02450256 0.00151062 2.06970215 0.00305176 C4.60247495 0.00825368 7.13522367 0.0222148 9.66796875 0.03515625 C15.33984375 0.05578125 21.01171875 0.07640625 26.85546875 0.09765625 C26.85546875 13.29765625 26.85546875 26.49765625 26.85546875 40.09765625 C25.86546875 39.60265625 25.86546875 39.60265625 24.85546875 39.09765625 C22.01140675 39.01075332 19.19147173 38.98204412 16.34765625 39 C15.60265869 39.00100708 14.85766113 39.00201416 14.09008789 39.00305176 C11.30353255 39.00828911 8.51699913 39.02225036 5.73046875 39.03515625 C-0.49828125 39.05578125 -6.72703125 39.07640625 -13.14453125 39.09765625 C-13.14453125 26.55765625 -13.14453125 14.01765625 -13.14453125 1.09765625 C-8.62927297 0.19460459 -4.55955035 -0.0319483 0 0 Z " fill="#B53A9F" transform="translate(192.14453125,844.90234375)"/>
<path d="M0 0 C12.54 0 25.08 0 38 0 C38 13.2 38 26.4 38 40 C25.46 40 12.92 40 0 40 C0 26.8 0 13.6 0 0 Z " fill="#B43A9E" transform="translate(139,804)"/>
<path d="M0 0 C12.54 0 25.08 0 38 0 C38 12.87 38 25.74 38 39 C25.46 39 12.92 39 0 39 C0 26.13 0 13.26 0 0 Z " fill="#DE6BC1" transform="translate(180,804)"/>
<path d="M0 0 C-0.66 0.33 -1.32 0.66 -2 1 C-2.33 12.55 -2.66 24.1 -3 36 C-7.10424584 37.02606146 -10.6560068 37.03504276 -14.828125 36.87890625 C-15.49247559 36.85824097 -16.15682617 36.83757568 -16.84130859 36.81628418 C-19.31107473 36.73781853 -21.78052272 36.64958398 -24.25 36.5625 C-29.7775 36.376875 -35.305 36.19125 -41 36 C-41 23.46 -41 10.92 -41 -2 C-31.96625 -2.3403125 -31.96625 -2.3403125 -22.75 -2.6875 C-20.85475586 -2.76701904 -18.95951172 -2.84653809 -17.00683594 -2.9284668 C-15.49938936 -2.97828865 -13.99190383 -3.02695106 -12.484375 -3.07421875 C-11.31672607 -3.1296283 -11.31672607 -3.1296283 -10.12548828 -3.18615723 C-5.78206062 -3.30572035 -3.12614595 -3.18067175 0 0 Z " fill="#B53B9E" transform="translate(847,847)"/>
<path d="M0 0 C12.87 0 25.74 0 39 0 C39 0.33 39 0.66 39 1 C26.79 1 14.58 1 2 1 C2 141.25 2 281.5 2 426 C14.87 426 27.74 426 41 426 C41 426.66 41 427.32 41 428 C27.47 428 13.94 428 0 428 C0 286.76 0 145.52 0 0 Z " fill="#711665" transform="translate(217,267)"/>
<path d="M0 0 C0.33 0 0.66 0 1 0 C1.07005067 14.15998612 1.1227694 28.3199454 1.15543652 42.48006916 C1.17111268 49.05472625 1.1923867 55.62926719 1.22631836 62.20385742 C1.25884199 68.54509312 1.27683831 74.88621688 1.28463173 81.22752953 C1.29018781 83.65052237 1.30103702 86.07350887 1.31719017 88.49645424 C1.33887111 91.88229382 1.3419708 95.26766697 1.34057617 98.65356445 C1.351362 99.66200912 1.36214783 100.6704538 1.3732605 101.7094574 C1.36707451 103.09135757 1.36707451 103.09135757 1.36076355 104.50117493 C1.36352893 105.30221303 1.36629431 106.10325113 1.36914349 106.92856312 C0.91329156 109.48656163 -0.02831682 110.37346106 -2 112 C-2.33 111.34 -2.66 110.68 -3 110 C-5.64 110 -8.28 110 -11 110 C-11 110.33 -11 110.66 -11 111 C-19 111 -27 111 -35 111 C-35 110.34 -35 109.68 -35 109 C-35.99 109 -36.98 109 -38 109 C-38 84.58 -38 60.16 -38 35 C-37.67 35 -37.34 35 -37 35 C-37 58.76 -37 82.52 -37 107 C-24.79 107 -12.58 107 0 107 C0 71.69 0 36.38 0 0 Z M-31 109 C-31 109.33 -31 109.66 -31 110 C-29.35 110 -27.7 110 -26 110 C-26 109.67 -26 109.34 -26 109 C-27.65 109 -29.3 109 -31 109 Z " fill="#5B0D59" transform="translate(803,888)"/>
<path d="M0 0 C0.33 0 0.66 0 1 0 C1.0246501 5.10863896 1.04283607 10.21724359 1.05493164 15.32592773 C1.05997204 17.06519168 1.0668043 18.80445136 1.07543945 20.54370117 C1.08751792 23.03825937 1.09323108 25.53276173 1.09765625 28.02734375 C1.10281754 28.80963852 1.10797882 29.59193329 1.11329651 30.39793396 C1.11349226 32.26567114 1.06199694 34.13329204 1 36 C-0.78153382 37.78153382 -3.17454462 37.12254859 -5.54691607 37.12908131 C-6.34942952 37.12616847 -7.15194298 37.12325563 -7.97877502 37.12025452 C-8.82492479 37.12110894 -9.67107455 37.12196337 -10.54286522 37.12284368 C-13.40042399 37.12450108 -16.25792508 37.11897288 -19.11547852 37.11352539 C-21.15500894 37.11324355 -23.19453946 37.11340119 -25.23406982 37.1139679 C-30.78962736 37.11425599 -36.34516352 37.10835738 -41.90071607 37.10139394 C-47.69967368 37.09516234 -53.49863172 37.09455676 -59.29759216 37.09336853 C-70.28713827 37.09025464 -81.27667448 37.08204048 -92.26621622 37.07201904 C-104.77385985 37.06085969 -117.28150394 37.0553479 -129.78915131 37.05032361 C-155.52610637 37.03985791 -181.26305263 37.02225736 -207 37 C-207 36.67 -207 36.34 -207 36 C-105.03 35.505 -105.03 35.505 -1 35 C-1 23.78 -1 12.56 -1 1 C-0.67 0.67 -0.34 0.34 0 0 Z " fill="#4FB781" transform="translate(619,308)"/>
<path d="M0 0 C0.33 0 0.66 0 1 0 C1 24.42 1 48.84 1 74 C0.34 74 -0.32 74 -1 74 C-1 81.59 -1 89.18 -1 97 C-1.33 97 -1.66 97 -2 97 C-2.79842959 89.62878395 -3.09629275 82.41454174 -3 75 C-6.63 75 -10.26 75 -14 75 C-14 75.33 -14 75.66 -14 76 C-18.33333333 76 -22.66666667 76 -27 76 C-27 75.34 -27 74.68 -27 74 C-30.3 74.99 -33.6 75.98 -37 77 C-37.99 75.68 -38.98 74.36 -40 73 C-26.8 73 -13.6 73 0 73 C0 48.91 0 24.82 0 0 Z " fill="#902881" transform="translate(259,923)"/>
<path d="M0 0 C12.87 0 25.74 0 39 0 C38.67 0.99 38.34 1.98 38 3 C37.01 3.33 36.02 3.66 35 4 C35 3.34 35 2.68 35 2 C32.36 2 29.72 2 27 2 C27 2.33 27 2.66 27 3 C19 3 11 3 3 3 C3 2.34 3 1.68 3 1 C2.01 0.67 1.02 0.34 0 0 Z M7 1 C7 1.33 7 1.66 7 2 C8.65 2 10.3 2 12 2 C12 1.67 12 1.34 12 1 C10.35 1 8.7 1 7 1 Z " fill="#89257A" transform="translate(765,996)"/>
<path d="M0 0 C0.33 0 0.66 0 1 0 C1.66 2.64 2.32 5.28 3 8 C-16.305 7.505 -16.305 7.505 -36 7 C-36 6.67 -36 6.34 -36 6 C-24.12 6 -12.24 6 0 6 C0 4.02 0 2.04 0 0 Z " fill="#BD3EA2" transform="translate(843,178)"/>
<path d="M0 0 C0.33 0 0.66 0 1 0 C1 3.3 1 6.6 1 10 C0.67 10 0.34 10 0 10 C0 6.7 0 3.4 0 0 Z " fill="#8B257D" transform="translate(216,906)"/>
<path d="M0 0 C0.33 0 0.66 0 1 0 C1 2.64 1 5.28 1 8 C0.67 8 0.34 8 0 8 C0 5.36 0 2.72 0 0 Z " fill="#8F2780" transform="translate(216,897)"/>
<path d="M0 0 C0.33 0 0.66 0 1 0 C1 2.31 1 4.62 1 7 C0.67 7 0.34 7 0 7 C0 4.69 0 2.38 0 0 Z " fill="#832275" transform="translate(216,945)"/>
<path d="M0 0 C0.33 0 0.66 0 1 0 C1 1.98 1 3.96 1 6 C0.67 6 0.34 6 0 6 C0 4.02 0 2.04 0 0 Z " fill="#842376" transform="translate(216,954)"/>
<path d="M0 0 C1.65 0 3.3 0 5 0 C5 0.33 5 0.66 5 1 C3.35 1 1.7 1 0 1 C0 0.67 0 0.34 0 0 Z " fill="#B947A0" transform="translate(848,846)"/>
<path d="M0 0 C4 1 4 1 4 1 Z " fill="#852277" transform="translate(246,998)"/>
<path d="M0 0 C1 4 1 4 1 4 Z " fill="#822374" transform="translate(806,991)"/>
<path d="M0 0 C1 4 1 4 1 4 Z " fill="#842277" transform="translate(216,936)"/>
<path d="M0 0 C1 4 1 4 1 4 Z " fill="#992F88" transform="translate(216,889)"/>
<path d="M0 0 C4 1 4 1 4 1 Z " fill="#A73A93" transform="translate(195,886)"/>
<path d="" fill="#7F2070" transform="translate(0,0)"/>
<path d="" fill="#842275" transform="translate(0,0)"/>
<path d="" fill="#88247A" transform="translate(0,0)"/>
<path d="" fill="#B4459D" transform="translate(0,0)"/>
<path d="M0 0 C3 1 3 1 3 1 Z " fill="#AE4397" transform="translate(141,184)"/>
<path d="M0 0 C0.66 0.66 1.32 1.32 2 2 C1.34 2 0.68 2 0 2 C0 1.34 0 0.68 0 0 Z " fill="#AF4797" transform="translate(803,106)"/>
<path d="M0 0 C2 1 2 1 2 1 Z " fill="#862376" transform="translate(793,998)"/>
<path d="" fill="#8A257C" transform="translate(0,0)"/>
<path d="" fill="#89247A" transform="translate(0,0)"/>
<path d="" fill="#8C257C" transform="translate(0,0)"/>
<path d="" fill="#8D257F" transform="translate(0,0)"/>
<path d="" fill="#922982" transform="translate(0,0)"/>
<path d="" fill="#952A85" transform="translate(0,0)"/>
<path d="" fill="#A03B8F" transform="translate(0,0)"/>
<path d="" fill="#A43B90" transform="translate(0,0)"/>
<path d="M0 0 C2 1 2 1 2 1 Z " fill="#A63A92" transform="translate(835,886)"/>
<path d="M0 0 C2 1 2 1 2 1 Z " fill="#A63992" transform="translate(827,886)"/>
<path d="M0 0 C2 1 2 1 2 1 Z " fill="#A53992" transform="translate(824,886)"/>
<path d="M0 0 C2 1 2 1 2 1 Z " fill="#A73A92" transform="translate(816,886)"/>
<path d="M0 0 C2 1 2 1 2 1 Z " fill="#A53893" transform="translate(211,886)"/>
<path d="M0 0 C2 1 2 1 2 1 Z " fill="#A83893" transform="translate(203,886)"/>
<path d="" fill="#A13B8F" transform="translate(0,0)"/>
<path d="" fill="#A83C94" transform="translate(0,0)"/>
<path d="M0 0 C2 1 2 1 2 1 Z " fill="#A73F92" transform="translate(142,847)"/>
<path d="" fill="#BD48A3" transform="translate(0,0)"/>
<path d="" fill="#8A217A" transform="translate(0,0)"/>
<path d="" fill="#86247A" transform="translate(0,0)"/>
<path d="" fill="#852278" transform="translate(0,0)"/>
<path d="" fill="#87257B" transform="translate(0,0)"/>
<path d="" fill="#852374" transform="translate(0,0)"/>
<path d="" fill="#862378" transform="translate(0,0)"/>
<path d="" fill="#882479" transform="translate(0,0)"/>
<path d="" fill="#842176" transform="translate(0,0)"/>
<path d="" fill="#852175" transform="translate(0,0)"/>
<path d="" fill="#7F206F" transform="translate(0,0)"/>
<path d="" fill="#832378" transform="translate(0,0)"/>
<path d="" fill="#842075" transform="translate(0,0)"/>
<path d="" fill="#862278" transform="translate(0,0)"/>
<path d="" fill="#852275" transform="translate(0,0)"/>
<path d="" fill="#4F3147" transform="translate(0,0)"/>
<path d="" fill="#742C65" transform="translate(0,0)"/>
<path d="" fill="#842476" transform="translate(0,0)"/>
<path d="" fill="#872377" transform="translate(0,0)"/>
<path d="" fill="#852378" transform="translate(0,0)"/>
<path d="" fill="#87237A" transform="translate(0,0)"/>
<path d="" fill="#88257B" transform="translate(0,0)"/>
<path d="" fill="#88247B" transform="translate(0,0)"/>
<path d="" fill="#88247A" transform="translate(0,0)"/>
<path d="" fill="#4A4146" transform="translate(0,0)"/>
<path d="" fill="#872479" transform="translate(0,0)"/>
<path d="" fill="#8B267E" transform="translate(0,0)"/>
<path d="" fill="#633357" transform="translate(0,0)"/>
<path d="" fill="#8A257C" transform="translate(0,0)"/>
<path d="" fill="#89257B" transform="translate(0,0)"/>
<path d="" fill="#8B257F" transform="translate(0,0)"/>
<path d="" fill="#962D85" transform="translate(0,0)"/>
<path d="" fill="#A83A93" transform="translate(0,0)"/>
<path d="" fill="#A83A92" transform="translate(0,0)"/>
<path d="" fill="#A63B93" transform="translate(0,0)"/>
<path d="" fill="#B3449F" transform="translate(0,0)"/>
<path d="" fill="#A64193" transform="translate(0,0)"/>
<path d="" fill="#A73E91" transform="translate(0,0)"/>
<path d="" fill="#B04499" transform="translate(0,0)"/>
<path d="" fill="#B3439B" transform="translate(0,0)"/>
<path d="" fill="#B846A0" transform="translate(0,0)"/>
<path d="" fill="#AD4196" transform="translate(0,0)"/>
<path d="" fill="#A93E93" transform="translate(0,0)"/>
<path d="" fill="#A53D91" transform="translate(0,0)"/>
<path d="" fill="#A13C8D" transform="translate(0,0)"/>
<path d="" fill="#A73D93" transform="translate(0,0)"/>
<path d="" fill="#A53D90" transform="translate(0,0)"/>
<path d="" fill="#B9459F" transform="translate(0,0)"/>
<path d="" fill="#BB4BA3" transform="translate(0,0)"/>
<path d="" fill="#BC4BA4" transform="translate(0,0)"/>
<path d="" fill="#BE4CA5" transform="translate(0,0)"/>
<path d="" fill="#BE4AA5" transform="translate(0,0)"/>
<path d="" fill="#BE4BA4" transform="translate(0,0)"/>
<path d="" fill="#BE4BA6" transform="translate(0,0)"/>
<path d="" fill="#BF4DA4" transform="translate(0,0)"/>
<path d="" fill="#C04EA8" transform="translate(0,0)"/>
<path d="" fill="#BE4CA5" transform="translate(0,0)"/>
<path d="" fill="#BD4AA2" transform="translate(0,0)"/>
<path d="" fill="#BC4CA3" transform="translate(0,0)"/>
<path d="" fill="#BE4BA7" transform="translate(0,0)"/>
<path d="" fill="#BE4BA6" transform="translate(0,0)"/>
<path d="" fill="#BF49A7" transform="translate(0,0)"/>
<path d="" fill="#BD4CA4" transform="translate(0,0)"/>
<path d="" fill="#BD4BA4" transform="translate(0,0)"/>
<path d="" fill="#BE4DA4" transform="translate(0,0)"/>
<path d="" fill="#C04DA7" transform="translate(0,0)"/>
<path d="" fill="#BE4CA6" transform="translate(0,0)"/>
<path d="" fill="#BE4CA6" transform="translate(0,0)"/>
<path d="" fill="#BE4CA6" transform="translate(0,0)"/>
<path d="" fill="#BC4BA3" transform="translate(0,0)"/>
<path d="" fill="#BF4CA4" transform="translate(0,0)"/>
<path d="" fill="#B44A9A" transform="translate(0,0)"/>
<path d="" fill="#B64A9E" transform="translate(0,0)"/>
<path d="" fill="#B2499C" transform="translate(0,0)"/>
<path d="" fill="#BF4FA3" transform="translate(0,0)"/>
<path d="" fill="#AB4296" transform="translate(0,0)"/>
<path d="" fill="#B3479A" transform="translate(0,0)"/>
<path d="" fill="#C251A7" transform="translate(0,0)"/>
<path d="" fill="#B3489C" transform="translate(0,0)"/>
<path d="" fill="#CA54AD" transform="translate(0,0)"/>
<path d="" fill="#C450A9" transform="translate(0,0)"/>
<path d="" fill="#C14CA7" transform="translate(0,0)"/>
<path d="" fill="#BE4CA5" transform="translate(0,0)"/>
<path d="" fill="#BC4CA5" transform="translate(0,0)"/>
<path d="" fill="#BA4A9E" transform="translate(0,0)"/>
<path d="" fill="#B6489A" transform="translate(0,0)"/>
<path d="" fill="#B04799" transform="translate(0,0)"/>
<path d="" fill="#B0489A" transform="translate(0,0)"/>
<path d="" fill="#BB4CA3" transform="translate(0,0)"/>
<path d="" fill="#BB4DA3" transform="translate(0,0)"/>
<path d="" fill="#C04EA5" transform="translate(0,0)"/>
<path d="" fill="#BE4EA6" transform="translate(0,0)"/>
<path d="" fill="#C150A5" transform="translate(0,0)"/>
<path d="" fill="#BE4DA4" transform="translate(0,0)"/>
<path d="" fill="#BD4EA6" transform="translate(0,0)"/>
<path d="" fill="#C24FA7" transform="translate(0,0)"/>
<path d="" fill="#BE4FA6" transform="translate(0,0)"/>
<path d="" fill="#C04EA5" transform="translate(0,0)"/>
<path d="" fill="#BE4EA5" transform="translate(0,0)"/>
<path d="" fill="#BD4DA5" transform="translate(0,0)"/>
<path d="" fill="#BD4DA6" transform="translate(0,0)"/>
<path d="" fill="#C04DA4" transform="translate(0,0)"/>
<path d="" fill="#BF4EA6" transform="translate(0,0)"/>
<path d="" fill="#C14DA6" transform="translate(0,0)"/>
<path d="" fill="#BE4EA5" transform="translate(0,0)"/>
<path d="" fill="#C04EA6" transform="translate(0,0)"/>
<path d="" fill="#BE4DA5" transform="translate(0,0)"/>
<path d="" fill="#BF4DA7" transform="translate(0,0)"/>
<path d="" fill="#BE4EA6" transform="translate(0,0)"/>
<path d="" fill="#C14FA6" transform="translate(0,0)"/>
<path d="" fill="#BD4DA4" transform="translate(0,0)"/>
<path d="" fill="#BF4FA6" transform="translate(0,0)"/>
<path d="" fill="#BE4EA5" transform="translate(0,0)"/>
<path d="" fill="#C04EA6" transform="translate(0,0)"/>
<path d="" fill="#BE4EA4" transform="translate(0,0)"/>
<path d="" fill="#BE4CA5" transform="translate(0,0)"/>
<path d="" fill="#BF4CA4" transform="translate(0,0)"/>
<path d="" fill="#BF4DA5" transform="translate(0,0)"/>
<path d="" fill="#C04DA6" transform="translate(0,0)"/>
<path d="" fill="#BF4FA5" transform="translate(0,0)"/>
<path d="" fill="#BE4DA3" transform="translate(0,0)"/>
<path d="" fill="#BE4DA4" transform="translate(0,0)"/>
<path d="" fill="#BE4DA5" transform="translate(0,0)"/>
<path d="" fill="#BD4CA2" transform="translate(0,0)"/>
<path d="" fill="#BE4CA4" transform="translate(0,0)"/>
<path d="" fill="#BA4B9F" transform="translate(0,0)"/>
<path d="" fill="#B7499F" transform="translate(0,0)"/>
<path d="" fill="#B04797" transform="translate(0,0)"/>
</svg>
